<svg width="1745" height="605" viewBox="0 0 1745 605" fill="none" xmlns="http://www.w3.org/2000/svg">
<path d="M957.283 367.884C957.288 374.375 957.288 379.893 957.288 385.411C957.999 385.651 958.71 385.891 959.422 386.131C961.908 383.69 964.408 381.263 966.878 378.806C981.359 364.396 997.549 353.275 1018.63 351.092C1048 348.05 1071.56 358.337 1086.41 383.77C1100.66 408.172 1099.84 433.168 1083.53 457.163C1072.46 473.458 1058.14 486.367 1041.94 497.017C1025.32 507.943 1007.19 509.095 989.941 498.733C977.792 491.436 966.828 482.165 954.802 473.387C954.802 485.034 954.802 497.386 954.802 509.681C948.821 511.395 945.411 507.986 941.773 506.242C934.326 502.673 927.193 498.447 919.931 494.492C919.689 486.861 919.247 479.231 919.236 471.6C919.171 425.279 919.204 378.958 919.204 332.637C919.204 329.001 919.204 325.364 919.204 320.803C912.792 320.38 906.958 319.995 900.786 319.587C900.786 311.77 900.786 304.262 900.786 296.148C906.416 295.722 911.552 295.332 916.844 294.931C921.098 267.228 914.689 242.124 903.463 217.871C892.334 193.826 877.939 172.103 857.948 152.962C866.14 152.962 874.333 152.961 882.525 152.963C898.912 152.966 898.923 152.957 909.55 165.145C932.852 191.865 948.006 222.551 953.755 257.599C954.985 265.1 955.051 272.895 954.758 280.52C954.167 295.891 953.689 295.645 969.854 295.609C1005.84 295.528 1041.83 295.582 1077.82 295.581C1081.41 295.581 1085 295.581 1089.09 295.581C1089.09 304.048 1089.09 311.493 1089.09 319.973C1044.73 319.973 1001.23 319.973 957.278 319.973C957.278 336.311 957.278 351.61 957.283 367.884ZM1063.94 468.183C1073.87 455.186 1077.78 440.822 1072.46 425.006C1062.76 396.163 1028.44 373.033 997.81 374.226C969.314 375.337 954.788 396.45 965.272 423.009C974.853 447.279 990.966 466.848 1014.36 478.855C1038 490.995 1049.08 487.511 1063.94 468.183Z" fill="white"/>
<path d="M581.455 315.15C580.253 317.326 579.258 319.387 577.832 319.75C575.321 320.388 572.547 320.014 569.883 320.018C539.239 320.065 508.594 320.104 477.949 320.143C474.655 320.148 471.361 320.144 466.941 320.144C465.683 330.068 466.432 339.5 466.47 349.726C477.9 347.416 488.475 344.676 499.223 343.235C520.001 340.448 540.565 341.102 559.38 351.911C571.596 358.929 579.399 369.527 580.568 383.807C581.816 399.046 582.614 414.352 582.814 429.639C583.165 456.528 582.912 483.424 582.912 510.34C571.522 508.412 553.723 498.11 548.748 490.24C545.604 491.836 542.397 493.47 539.185 495.093C511.307 509.174 482.423 513.812 452.257 503.586C436.341 498.191 422.843 489.327 415.68 473.299C410.785 462.347 410.799 451.453 417.165 440.803C432.178 415.689 455.161 402.161 482.937 396.252C505.057 391.546 526.68 393.533 546.975 404.49C547.786 404.928 548.807 404.98 549.707 405.206C553.84 395.051 552.083 385.524 543.421 379.848C537.48 375.955 530.366 372.643 523.42 371.705C492.101 367.478 463.322 374.885 437.316 392.911C435.705 394.027 434.034 395.057 430.755 397.194C430.439 389.846 429.627 383.768 430.192 377.82C430.42 375.42 433.854 373.436 435.473 371.023C437.041 368.689 439.217 366.075 439.284 363.535C439.655 349.572 439.461 335.594 439.461 320.544C432.609 320.544 426.471 320.544 419.704 320.544C419.704 311.411 419.704 303.373 419.704 295.014C473.702 295.014 526.843 295.014 581.468 295.014C581.468 301.866 581.468 308.068 581.455 315.15ZM439.569 448.062C436.053 452.864 432.094 457.411 429.138 462.537C425.887 468.176 426.723 471.365 431.381 475.832C436.61 480.848 442.907 483.203 450.182 483.811C478.416 486.172 504.159 479.199 527.561 463.487C536.595 457.421 545.668 451.232 551.068 440.71C543.974 431.092 533.5 427.261 523.069 424.641C491.607 416.738 464.095 424.899 439.569 448.062Z" fill="white"/>
<path d="M1438.94 498.137C1420.16 506.669 1401.1 508.388 1381.57 507.125C1368.91 506.307 1357.48 502.117 1347.49 494.337C1341.45 489.64 1335.14 485.093 1329.97 479.534C1321.44 470.354 1316.21 457.999 1324.29 442.965C1335.51 422.085 1353.53 409.608 1375.01 401.708C1401.7 391.896 1428.39 391.367 1454.64 403.786C1456.37 404.605 1458.31 404.994 1460.67 405.751C1463.79 396.942 1461.66 389.777 1456.23 383.355C1449.16 374.977 1439.66 371.292 1429.07 370.133C1403.81 367.369 1380 372.138 1357.75 384.383C1351.98 387.562 1346.52 391.32 1339.29 395.827C1339.11 388.839 1338.38 383.04 1339.1 377.426C1339.4 375.091 1342.92 373.26 1344.74 371.002C1346.5 368.802 1349.26 366.389 1349.33 364.001C1349.76 349.757 1349.54 335.492 1349.54 320.11C1341.51 320.11 1334.37 320.11 1327.1 320.11C1327.1 311.466 1327.1 303.977 1327.1 296.047C1384.42 296.047 1440.93 296.047 1498.07 296.047C1498.07 303.984 1498.07 311.453 1498.07 319.967C1457.6 319.967 1417.5 319.967 1376.83 319.967C1376.83 330.498 1376.83 339.997 1376.83 349.911C1387.32 348.251 1397.42 346.408 1407.59 345.096C1424.58 342.904 1441.51 343.091 1458.07 348.113C1470.7 351.944 1480.98 358.875 1486.19 371.564C1487.55 374.872 1488.47 378.616 1488.51 382.171C1488.92 422.462 1489.14 462.756 1489.36 503.048C1489.37 504.604 1488.98 506.162 1488.57 509.289C1478.84 505.334 1469.9 502.048 1461.33 497.979C1459.14 496.938 1458.12 493.417 1455.95 490.08C1450.8 492.545 1445.23 495.214 1438.94 498.137ZM1451.95 431.562C1440.35 424.644 1427.97 420.35 1414.36 419.606C1379.17 417.682 1353.96 434.17 1335.16 462.392C1331.52 467.868 1331.55 470.686 1336.81 474.43C1342.33 478.365 1348.81 482.412 1355.29 483.312C1391.19 488.293 1423.1 478.348 1450.69 454.974C1455.1 451.232 1458.4 446.17 1462.81 441.028C1458.97 437.614 1456.06 435.036 1451.95 431.562Z" fill="white"/>
<path d="M1656.6 320.449C1610 320.449 1564.4 320.449 1517.96 320.449C1517.96 311.962 1517.96 304.532 1517.96 297.11C1525 295.25 1730.79 294.67 1744.76 296.639C1744.76 300.325 1744.76 304.209 1744.76 308.093C1744.76 311.728 1744.76 315.364 1744.76 319.704C1739.41 320.163 1734.6 320.576 1728.97 321.06C1728.42 330.18 1728.18 339.09 1727.25 347.927C1726.8 352.096 1725.78 356.555 1723.73 360.149C1697.19 406.751 1670.46 453.244 1643.67 499.703C1638.2 509.187 1633.97 510.855 1625.39 503.993C1613.49 494.476 1602.3 483.868 1592.02 472.622C1584.45 464.344 1578.14 454.692 1572.46 444.957C1559.87 423.396 1560.71 401.845 1574.58 380.943C1576.06 378.724 1577.69 376.59 1578.94 374.253C1580.72 370.94 1582.38 366.827 1579.18 364.121C1576.7 362.025 1572.49 360.521 1569.35 360.943C1560.94 362.072 1553.67 366.336 1547.37 372.041C1544.93 374.251 1542.79 376.781 1540.09 379.607C1530.57 373.452 1523.96 364.754 1515.32 356.648C1518.17 354.554 1520.05 352.796 1522.25 351.611C1536.05 344.156 1550.72 340.454 1566.49 342.021C1589.81 344.338 1607.93 363.126 1608.47 386.604C1608.88 404.577 1608.03 422.575 1607.92 440.564C1607.87 449.553 1608.19 458.546 1608.4 467.536C1608.43 468.857 1608.62 470.219 1609 471.479C1611.31 479.049 1618.01 480.632 1623.52 474.836C1624.86 473.416 1625.8 471.569 1626.78 469.841C1646.09 435.993 1665.28 402.078 1684.77 368.33C1688.08 362.591 1689.59 356.869 1689.38 350.315C1689.08 340.721 1689.31 331.111 1689.31 320.449C1678.04 320.449 1667.82 320.449 1656.6 320.449Z" fill="white"/>
<path d="M1121.43 350.042C1121.43 340.108 1121.43 331.173 1121.43 321.726C1116.45 320.969 1112.28 320.337 1107.83 319.66C1107.83 312.017 1107.83 304.524 1107.83 296.44C1112.2 295.939 1116.04 295.499 1120.37 295.004C1122.7 281.787 1120.59 269.023 1117.45 256.515C1108.7 221.653 1091.29 191.928 1063.78 168.417C1061.69 166.637 1059.95 164.453 1058.54 161.324C1071.77 159.907 1084.54 159.313 1097.22 161.694C1099.57 162.136 1101.69 164.414 1103.66 166.14C1135.93 194.433 1151.36 231.08 1156.4 272.838C1157.27 280.032 1157.93 287.25 1158.79 295.349C1209.1 295.349 1258.62 295.349 1308.38 295.349C1311.15 303.757 1308.55 311.228 1308.91 319.853C1259.61 319.853 1210.82 319.853 1160.66 319.853C1159.92 384.417 1159.2 447.827 1158.46 512.259C1154.99 511.133 1152.5 510.507 1150.17 509.518C1148.03 508.613 1146.03 507.375 1144.03 506.184C1136.63 501.783 1129.25 497.342 1121.87 492.916C1121.72 484.281 1121.46 475.646 1121.45 467.011C1121.4 428.354 1121.43 389.697 1121.43 350.042Z" fill="white"/>
<path d="M732.622 374.057C754.185 358.227 761.88 354.749 792.695 346.87C794.381 338.804 793.795 330.291 793.577 320.307C772.138 319.712 750.984 320.112 729.847 320.044C708.849 319.977 687.851 320.03 666.854 320.03C645.564 320.03 624.274 320.03 602.449 320.03C602.449 311.721 602.449 304.275 602.449 296.204C695.424 296.204 787.559 296.204 880.748 296.204C880.748 303.791 880.748 311.241 880.748 319.959C864.726 319.959 848.27 319.959 830.588 319.959C830.588 328.35 830.608 335.56 830.582 342.77C830.563 347.808 834.321 349.445 838.039 351.019C858.798 359.803 872.188 374.893 876.958 397.069C880.62 414.091 879.751 430.726 872.04 446.769C859.01 473.88 837.955 493.209 812.948 508.892C809.13 511.287 806.343 510.901 803.321 507.703C794.187 498.036 784.91 488.504 775.176 478.385C781.843 476.344 788.153 474.6 794.335 472.485C815.829 465.131 834.7 453.636 850.032 436.678C857.303 428.636 862.39 419.368 865.448 408.973C869.36 395.673 865.43 383.313 853.99 375.565C834.334 362.253 813.537 363.136 793.193 373.178C767.643 385.789 752.479 406.808 747.238 434.88C746.934 436.509 746.704 438.152 746.397 439.781C746.341 440.081 746.082 440.342 745.184 441.86C731.446 438.456 718.837 431.394 705.324 425.93C707.02 404.521 717.982 388.712 732.622 374.057Z" fill="white"/>
<path d="M636.522 482.048C620.89 469.05 608.466 454.858 603.316 435.096C594.007 399.378 608.881 366.212 642.402 350.542C673.622 335.948 703.252 341.628 731.755 358.561C732.317 358.896 732.849 359.354 733.25 359.868C733.627 360.352 733.811 360.986 734.16 361.724C730.521 365.409 726.84 369.138 724.154 371.858C711.776 371.332 700.478 369.822 689.334 370.574C656.634 372.78 634.045 402.625 639.745 434.889C642.87 452.585 651.963 467.253 663.762 480.109C671.811 488.88 681.356 496.282 690.258 504.267C692.371 506.162 694.588 507.941 697.259 510.197C684.495 512.991 664.331 503.461 636.522 482.048Z" fill="white"/>
<path d="M1238.03 477.502C1248.78 465.992 1258.19 454.43 1264.67 440.67C1274.75 419.266 1274.56 398.331 1262.85 377.569C1257.43 367.957 1249.09 363.606 1238.44 362.666C1219.85 361.024 1204.52 368.73 1190.96 380.113C1182.2 387.473 1174.63 396.259 1165.51 405.427C1166.08 394.311 1166.53 383.798 1167.25 373.303C1167.36 371.842 1168.49 370.163 1169.63 369.108C1178.68 360.723 1187.9 352.55 1199.62 347.935C1229.76 336.078 1264.23 347.881 1283.39 376.642C1283.76 377.195 1284.1 377.772 1284.45 378.334C1313.31 424.017 1303.45 475.554 1258.54 509.591C1248.71 503.172 1238.53 496.523 1227.01 488.997C1230.88 484.956 1234.2 481.481 1238.03 477.502Z" fill="white"/>
<path d="M70.4912 577.501C70.1484 577.593 69.5772 577.195 68.7148 576.353C69.0367 576.276 69.6497 576.644 70.4912 577.501Z" fill="#045697"/>
<path d="M274.728 451.806C285.098 429.216 283.054 406.724 275.033 383.91C268.358 364.926 255.999 349.712 243.824 334.387C235.566 323.993 226 314.645 217.532 304.405C213.872 299.979 209.555 297.718 204.305 296.236C199.521 294.885 194.626 293.526 190.227 291.29C179.638 285.907 179.024 281.534 187.21 272.405C183.43 267.506 179.128 262.837 175.854 257.532C161.94 234.988 176.198 212.159 198.114 209.5C208.679 208.218 217.919 212.556 225.762 218.941C246.145 235.535 265.515 253.263 282.462 273.461C291.866 284.669 301.369 295.799 310.52 307.21C326.917 327.656 340.165 349.833 346.009 375.733C347.39 381.854 347.756 388.205 347.736 395.537C346.177 398.309 345.024 399.948 344.84 401.689C343.406 415.245 339.918 428.01 331.407 439.012C330.845 439.739 330.782 440.852 329.882 442.096C328.071 443.533 326.861 444.658 325.656 445.788C310.968 459.579 292.591 461.75 274.728 451.806Z" fill="#3BB3F2"/>
<path d="M273.92 451.67C292.591 461.751 310.968 459.579 325.656 445.789C326.861 444.658 328.071 443.533 329.926 442.904C329.623 446.868 329.379 450.756 327.603 453.728C319.1 467.953 310.599 482.214 301.245 495.88C296.234 503.201 290.605 511.185 283.281 515.577C273.028 521.725 266.601 531.411 257.481 538.446C246.984 546.544 237.197 555.476 224.883 560.96C217.901 564.069 211.415 568.398 204.284 571.039C190.084 576.3 175.64 580.926 161.166 585.389C159.291 585.967 156.64 584.03 154.524 582.694C156.714 580.127 158.73 578.123 161.342 575.811C176.239 565.055 180.981 542.662 172.675 525.862C171.781 520.689 170.838 515.524 170.003 510.342C168.79 502.815 167.282 495.312 166.562 487.735C164.994 471.224 172.278 457.934 183.122 446.423C194.764 434.067 209.246 430.126 225.95 432.909C239.683 435.197 251.677 441.702 264.034 447.418C267.049 448.812 270.085 450.163 273.92 451.67Z" fill="#0263AD"/>
<path d="M171.81 525.841C180.982 542.662 176.239 565.055 160.433 575.777C150.396 575.978 141.826 576.387 133.345 575.692C125.481 575.048 117.56 573.8 109.939 571.782C99.1048 568.913 88.2168 565.825 77.9045 561.51C62.9645 555.259 51.6569 543.817 40.1498 532.733C31.5632 524.463 22.5121 516.52 10.6298 513.187C8.82565 512.681 6.56606 513.798 4.06583 514.099C3.61455 514.033 2.7057 513.956 2.66505 513.168C1.94101 508.263 1.25761 504.146 0.574219 500.03C2.17076 494.311 3.08627 488.286 5.49741 482.933C11.6056 469.375 25.3802 462.798 40.0271 465.637C55.7166 468.677 67.7367 477.536 78.3659 489.019C86.2138 497.497 94.3107 505.827 102.986 513.436C113.819 522.938 127.3 527.288 141.354 528.113C151.139 528.688 161.075 526.676 171.81 525.841Z" fill="#3BB3F2"/>
<path d="M154.349 583.257C156.64 584.029 159.291 585.967 161.166 585.389C175.64 580.925 190.084 576.299 204.284 571.039C211.415 568.397 217.901 564.068 224.883 560.96C237.197 555.476 246.984 546.543 257.481 538.446C266.601 531.411 273.028 521.724 283.281 515.577C290.605 511.185 296.234 503.201 301.245 495.879C310.599 482.214 319.1 467.952 327.603 453.728C329.379 450.756 329.623 446.868 330.53 442.594C330.782 440.852 330.845 439.739 331.407 439.012C339.919 428.01 343.407 415.245 344.84 401.689C345.024 399.948 346.178 398.309 347.585 396.406C351.483 407.152 352.655 418.267 351.033 429.641C350 442 348.587 454.804 345.724 466.999C337.467 502.177 318.514 531.343 292.103 557.328C285.615 562.691 280.069 567.265 273.863 571.955C270.349 574.085 267.493 576.099 263.97 578.199C259.663 580.696 256.023 583.108 251.697 585.599C248.903 586.549 246.797 587.421 243.997 588.356C239.078 590.308 234.852 592.198 229.864 594.103C223.627 595.498 218.153 596.877 211.924 598.41C203.687 599.89 196.205 601.215 187.847 602.403C184.328 602.312 181.614 601.981 179.054 602.466C160.53 605.973 142.109 604.263 124.105 599.999C111.676 597.056 99.6493 592.177 87.7224 587.456C81.7133 585.078 76.3265 581.127 71.4521 577.864C74.7829 578.446 77.4686 578.703 79.832 579.713C92.7282 585.229 106.414 587.663 120.16 587.572C131.565 587.497 142.953 584.795 154.349 583.257Z" fill="#045697"/>
<path d="M154.524 582.694C142.953 584.796 131.565 587.497 120.16 587.573C106.414 587.664 92.7282 585.23 79.832 579.714C77.4686 578.703 74.7829 578.446 71.4361 577.912C70.6263 577.982 70.7198 577.992 70.4914 577.501C69.6499 576.644 69.0369 576.276 67.7077 575.852C54.9081 570.484 44.3434 562.915 34.3972 553.428C30.4317 549.803 26.7274 546.788 22.8549 543.148C20.6694 540.332 18.6522 538.143 16.3767 535.378C14.4439 533.065 12.7695 531.328 10.9584 528.943C9.56429 526.636 8.30688 524.975 6.98819 522.699C6.11559 520.736 5.30428 519.389 4.51367 517.396C4.52858 515.887 4.52281 515.026 4.51703 514.165C6.56598 513.798 8.82558 512.681 10.6298 513.187C22.512 516.52 31.5632 524.463 40.1497 532.733C51.6568 543.817 62.9644 555.26 77.9044 561.51C88.2168 565.825 99.1048 568.914 109.939 571.782C117.56 573.801 125.481 575.048 133.345 575.692C141.826 576.387 150.396 575.978 159.836 576.085C158.73 578.123 156.714 580.127 154.524 582.694Z" fill="#3CA3DD"/>
<path d="M96.7368 123.024C96.061 128.262 95.2363 133.485 94.7337 138.739C91.6685 170.783 101.512 199.745 116.45 227.33C126.45 245.796 139.432 262.188 153.12 278.057C156.523 282.003 160.278 284.569 165.272 285.994C169.367 287.162 173.411 288.927 177.076 291.105C186.484 296.694 186.614 298.759 178.874 306.341C182.034 313.557 185.635 320.616 188.258 328.022C192.717 340.616 188.827 352.299 177.822 360.325C174.101 363.039 169.84 365.014 164.328 367.615C158.167 367.779 153.504 367.655 148.359 367.073C143.633 365.046 139.389 363.477 134.731 361.36C130.385 357.903 126.453 354.993 122.232 351.487C109.4 337.178 95.584 324.402 84.6291 309.52C70.1418 289.84 57.8945 268.511 44.5924 247.174C41.9657 240.68 39.4923 234.875 36.881 229.133C33.6172 221.955 30.2401 214.829 26.8672 206.891C23.4523 192.733 20.0821 179.365 16.7278 165.097C16.412 158.774 16.0803 153.35 15.9004 147.213C16.2003 145.053 16.3483 143.605 17.041 141.688C20.2344 134.828 22.3274 128.129 25.6555 122.115C31.3948 111.743 39.312 105.222 52.5911 105.671C69.6587 106.248 82.9151 115.01 96.7368 123.024Z" fill="#FE8CB7"/>
<path d="M97.4905 122.899C82.9148 115.009 69.6585 106.248 52.5909 105.671C39.3117 105.222 31.3946 111.743 25.6553 122.115C22.3271 128.129 20.2342 134.827 16.6209 141.002C15.6844 134.53 15.7949 128.272 15.6945 122.018C15.6607 119.919 15.0899 117.828 14.7646 115.733C19.5438 102.754 23.1964 89.2125 29.3281 76.9068C43.722 48.0193 67.5178 28.6799 96.4963 15.4641C125.658 2.16472 156.54 -1.47895 188.178 0.503896C198.438 1.1469 208.685 2.8828 218.781 4.90398C224.195 5.98778 229.274 8.73961 234.051 11.3646C215.344 13.1261 197.6 15.5508 183.229 28.6887C175.826 35.4566 167.875 41.9416 167.481 52.8108C167.225 59.8843 162.359 66.6757 166.152 73.9523C165.441 86.2895 164.058 98.4092 157.047 109.167C149.575 120.633 139.42 126.869 125.477 126.552C116.239 126.342 106.946 126.759 97.4905 122.899Z" fill="#FD4F8B"/>
<path d="M166.945 73.6088C162.359 66.6758 167.225 59.8844 167.481 52.8109C167.875 41.9417 175.826 35.4567 183.229 28.6888C197.6 15.5509 215.344 13.1263 234.538 11.9385C239.867 13.2081 244.708 13.7503 248.567 15.9863C265.214 25.6326 279.727 37.3574 285.183 57.1233C291.603 80.3839 271.774 101.952 247.956 97.3997C240.37 95.9499 233.539 93.0048 227.344 88.0579C209.823 74.0689 190.017 68.4807 166.945 73.6088Z" fill="#FE8CB7"/>
</svg>
