<svg width="74" height="74" viewBox="0 0 74 74" fill="none" xmlns="http://www.w3.org/2000/svg">
<path d="M10.9344 1.8L36.6678 27.5333L62.2678 1.93333C62.8332 1.33145 63.5144 0.849964 64.2705 0.517748C65.0266 0.185532 65.842 0.00942896 66.6678 0C68.4359 0 70.1316 0.702379 71.3818 1.95262C72.632 3.20286 73.3344 4.89856 73.3344 6.66667C73.35 7.48401 73.1983 8.29591 72.8888 9.05254C72.5793 9.80917 72.1184 10.4946 71.5344 11.0667L45.6011 36.6667L71.5344 62.6C72.6332 63.6749 73.2775 65.1306 73.3344 66.6667C73.3344 68.4348 72.632 70.1305 71.3818 71.3807C70.1316 72.631 68.4359 73.3333 66.6678 73.3333C65.8181 73.3686 64.9704 73.2268 64.1785 72.9169C63.3866 72.607 62.6678 72.1359 62.0678 71.5333L36.6678 45.8L11.0011 71.4667C10.4378 72.0485 9.76485 72.513 9.0211 72.8334C8.27735 73.1537 7.47752 73.3237 6.66775 73.3333C4.89964 73.3333 3.20395 72.631 1.95371 71.3807C0.703463 70.1305 0.00108471 68.4348 0.00108471 66.6667C-0.0144586 65.8493 0.137187 65.0374 0.446718 64.2808C0.756248 63.5242 1.21713 62.8388 1.80108 62.2667L27.7344 36.6667L1.80108 10.7333C0.702318 9.65839 0.0580155 8.20275 0.00108471 6.66667C0.00108471 4.89856 0.703463 3.20286 1.95371 1.95262C3.20395 0.702379 4.89964 0 6.66775 0C8.26775 0.02 9.80109 0.666667 10.9344 1.8Z" fill="white"/>
</svg>
